<?xml version="1.0" encoding="utf-8"?>
<svg width="503" height="576" viewBox="0 0 503 576" fill="none" xmlns="http://www.w3.org/2000/svg">
<path fill-rule="evenodd" clip-rule="evenodd" d="M346.689 64.3855L337.737 69.856L339.064 20.8014C339.103 19.8438 339.351 18.425 339.808 16.5449C340.253 14.6399 340.768 12.6569 341.353 10.596C341.951 8.49853 342.601 6.51311 343.304 4.63974C343.995 2.74147 344.584 1.20909 345.071 0.0425888C345.836 -0.0716415 346.465 0.0439168 346.96 0.389264C347.479 0.723021 347.934 1.1779 348.324 1.75391C348.714 2.32992 349.017 2.91584 349.234 3.51167C349.452 4.10753 349.647 4.59219 349.821 4.96565L350.779 7.01971C351.174 7.86621 351.321 8.31267 351.222 8.35908C351.472 11.3646 351.412 15.1052 351.044 19.5809C350.701 24.045 350.219 28.8616 349.598 34.0309C349.002 39.1885 348.395 44.5487 347.776 50.1112C347.255 54.9784 346.893 59.7364 346.689 64.3855Z" fill="#589B4C"/>
<path fill-rule="evenodd" clip-rule="evenodd" d="M227.238 182.489C227.049 183.265 226.857 184.056 226.662 184.86C224.763 192.707 222.824 200.839 220.843 209.255L197.548 149.922C196.987 148.492 196.451 146.235 195.939 143.15C195.407 140.046 194.934 136.774 194.52 133.333C194.086 129.874 193.784 126.535 193.616 123.315C193.465 120.074 193.385 117.433 193.375 115.391C194.431 114.752 195.441 114.534 196.405 114.737C197.367 114.9 198.321 115.298 199.269 115.929C200.214 116.521 201.037 117.188 201.737 117.929C202.437 118.671 203.032 119.262 203.522 119.703L206.186 122.102C207.309 123.113 207.806 123.69 207.678 123.833C209.966 128.147 212.242 133.727 214.507 140.572C216.79 147.396 219.096 154.832 221.424 162.88C223.279 169.226 225.217 175.762 227.238 182.489ZM300.205 109.398C301.474 102.827 302.642 96.5774 303.709 90.6502L353.486 60.2319C354.796 59.4315 356.926 58.512 359.874 57.4734C362.838 56.4116 365.977 55.379 369.292 54.3756C372.622 53.3489 375.858 52.4736 378.999 51.7497C382.163 51.0405 384.749 50.5043 386.757 50.1411C387.569 51.0708 387.959 52.0279 387.927 53.0125C387.933 53.9884 387.707 54.9977 387.25 56.0404C386.831 57.0743 386.317 58.0005 385.709 58.8188C385.1 59.6371 384.621 60.3258 384.272 60.8849L382.372 63.9252C381.572 65.2066 381.09 65.7963 380.927 65.6943C377.076 68.6958 371.977 71.905 365.632 75.3219C359.309 78.7534 352.389 82.3127 344.87 86C337.374 89.7018 329.602 93.587 321.553 97.6556C314.104 101.431 306.988 105.345 300.205 109.398Z" fill="#3C6D66"/>
<path fill-rule="evenodd" clip-rule="evenodd" d="M5.35922 455.504C-1.27709 479.128 -1.7501 501.554 3.94017 522.781C6.10249 530.848 8.73856 538.559 11.8484 545.917C14.9582 553.274 18.9794 559.362 23.9119 564.183C28.8445 569.003 34.8722 572.392 41.9952 574.349C49.1181 576.306 57.5617 575.975 67.3258 573.355L71.1465 572.33C74.0043 571.108 77.6543 569.447 82.0965 567.345C86.5387 565.243 90.8747 563.169 95.1046 561.124C99.3345 559.079 102.928 557.205 105.884 555.502L110.318 552.947L186.999 444.317C197.215 462.055 208.57 474.708 221.066 482.278C233.561 489.848 246.264 493.948 259.175 494.58C272.086 495.212 284.314 493.297 295.859 488.834C307.405 484.372 317.229 479.005 325.332 472.736C333.435 466.466 338.955 460.321 341.891 454.299C344.828 448.278 344.22 443.89 340.069 441.136C335.918 438.382 327.36 438.288 314.397 440.856C301.434 443.423 282.842 450.459 258.622 461.963C243.247 460.627 233.69 453.407 229.95 440.303C226.209 427.198 225.905 410.784 229.035 391.058C232.166 371.332 237.658 349.38 245.511 325.202C253.364 301.024 261.196 277.192 269.008 253.708C271.515 244.389 274.225 232.853 277.137 219.102C280.049 205.351 283.138 190.984 286.402 176.001C289.666 161.017 292.825 146.063 295.877 131.136C298.929 116.21 301.551 102.65 303.743 90.4577C305.936 78.265 307.713 68.3452 309.076 60.6982C310.439 53.0512 311.007 48.8032 310.78 47.9541L279.287 29.7808C278.438 30.0086 276.123 34.9529 272.342 44.6138C268.561 54.2748 264.28 65.8901 259.499 79.46C254.718 93.0298 249.916 106.947 245.094 121.21C240.271 135.474 236.606 147.265 234.099 156.584C232.379 162.052 229.9 171.477 226.662 184.86C223.424 198.244 220.066 212.456 216.59 227.496C213.113 242.536 209.89 256.826 206.921 270.365C203.952 283.903 202.032 293.293 201.161 298.532L197.34 299.557C189.274 301.721 181.235 302.285 173.221 301.25C165.208 300.214 157.168 300.778 149.102 302.942C128.725 308.409 108.566 318.937 88.6272 334.525C68.6881 350.114 51.4843 368.268 37.016 388.988C22.5477 409.707 11.9955 431.879 5.35922 455.504ZM45.525 513.672C44.8269 510.219 44.1364 507.219 43.4535 504.671C39.0151 488.114 39.5025 471.259 44.9158 454.107C50.329 436.954 58.6954 421.057 70.015 406.416C81.3345 391.774 94.6312 378.992 109.905 368.068C125.179 357.144 140.457 349.632 155.74 345.531C157.863 344.962 160.594 344.116 163.933 342.992C167.273 341.869 170.62 341.198 173.974 340.981C177.329 340.764 180.43 341.297 183.277 342.581C186.124 343.865 188.059 346.417 189.084 350.238C189.197 350.663 189.177 351.01 189.021 351.279C188.866 351.548 188.902 352.107 189.13 352.957L189.642 354.867C187.58 359.061 183.753 366.003 178.16 375.695C172.567 385.387 166.615 395.858 160.302 407.109C153.989 418.359 147.852 428.993 141.892 439.011C135.931 449.03 131.863 455.923 129.688 459.692C127.399 463.037 123.705 468.351 118.604 475.636C113.503 482.92 107.872 490.347 101.71 497.916C95.548 505.486 89.0808 512.34 82.3082 518.48C75.5357 524.621 69.39 528.431 63.8712 529.912C60.0504 530.937 56.9004 530.644 54.421 529.034C51.9416 527.424 50.0137 525.324 48.6371 522.736C47.2606 520.147 46.2232 517.126 45.525 513.672ZM435.449 324.019C436.068 327.92 436.626 330.8 437.124 332.657C440.224 344.226 446.675 352.012 456.479 356.014C466.309 360.009 476.757 360.526 487.823 357.564C490.716 356.79 493.054 355.538 494.837 353.81C496.614 352.055 497.186 349.996 496.553 347.635C495.564 343.946 493.409 341.423 490.088 340.066C486.759 338.682 483.235 337.364 479.515 336.113C475.789 334.835 472.176 333.186 468.676 331.165C465.177 329.144 462.795 325.772 461.529 321.049C459.133 312.107 458.398 301.724 459.326 289.902C460.253 278.079 462.108 265.525 464.89 252.239C467.672 238.953 471.069 225.361 475.08 211.462C479.118 197.556 483.081 184.167 486.97 171.296C490.851 158.398 494.247 146.342 497.157 135.126C500.068 123.91 501.884 114.395 502.605 106.581C502.87 106.51 502.687 105.293 502.054 102.932L500.571 97.3992C500.287 96.3378 500.001 95.0066 499.715 93.4055C499.421 91.7779 498.913 90.1505 498.193 88.5233C497.466 86.8696 496.529 85.4991 495.385 84.412C494.26 83.2912 492.711 82.7105 490.737 82.6699C488.918 85.4319 486.707 89.0667 484.103 93.5741C481.52 98.0479 478.997 102.804 476.536 107.842C474.075 112.88 471.844 117.715 469.843 122.345C467.834 126.949 466.584 130.455 466.091 132.862L432.734 295.739C432.443 296.67 432.438 298.719 432.718 301.886C432.997 305.053 433.366 308.552 433.824 312.382C434.281 316.213 434.823 320.092 435.449 324.019ZM269.295 377.963C269.264 380.929 269.74 384.242 270.721 387.904C271.994 392.654 274.053 396.411 276.898 399.176C279.744 401.94 283.03 403.961 286.757 405.239C290.476 406.489 294.504 407.032 298.839 406.867C303.167 406.675 307.295 406.053 311.223 405.002C314.911 404.014 320.024 402.29 326.56 399.829C333.096 397.368 339.325 394.293 345.247 390.603C351.169 386.913 356.1 382.706 360.039 377.983C364.004 373.253 365.279 368.248 363.864 362.967C363.729 362.463 363.435 361.632 362.983 360.473C362.53 359.315 362.236 358.483 362.101 357.979C360.644 358.909 358.081 360.435 354.411 362.555C350.768 364.668 346.913 366.837 342.845 369.064C338.797 371.257 334.987 373.329 331.415 375.281C327.835 377.206 325.298 378.511 323.803 379.195C322.813 379.745 321.155 380.189 318.828 380.527C316.528 380.859 314.032 381.257 311.341 381.721C308.643 382.159 306.13 382.548 303.804 382.886C301.503 383.218 299.836 383.522 298.801 383.799C296.263 374.326 296.113 364.853 298.353 355.381C300.612 345.875 303.645 336.389 307.45 326.924C311.249 317.432 315.166 307.852 319.202 298.183C323.231 288.488 325.891 278.675 327.183 268.745C325.47 265.535 323.198 264.167 320.367 264.641C317.536 265.114 314.94 265.667 312.578 266.299C308.89 267.287 306.418 268.091 305.162 268.712C303.933 269.325 302.596 271.659 301.151 275.715C300.069 279.104 298.057 285.075 295.115 293.626C292.2 302.17 289.14 311.237 285.936 320.825C282.732 330.413 279.677 339.55 276.771 348.234C273.892 356.91 271.875 362.811 270.722 365.935C269.82 370.954 269.344 374.964 269.295 377.963ZM360.209 343.897C360.827 347.798 361.386 350.677 361.883 352.534C364.984 364.104 371.435 371.889 381.239 375.891C391.069 379.885 401.516 380.401 412.582 377.438C415.475 376.664 417.813 375.412 419.596 373.684C421.373 371.928 421.944 369.87 421.312 367.508C420.323 363.82 418.168 361.297 414.847 359.939C411.518 358.556 407.994 357.238 404.275 355.987C400.548 354.71 396.935 353.061 393.436 351.04C389.936 349.019 387.554 345.647 386.288 340.924C383.892 331.982 383.158 321.599 384.085 309.777C385.012 297.954 386.867 285.399 389.649 272.113C392.431 258.827 395.828 245.234 399.839 231.334C403.876 217.427 407.84 204.038 411.728 191.167C415.609 178.269 419.005 166.212 421.915 154.996C424.825 143.78 426.641 134.264 427.363 126.449C427.628 126.378 427.444 125.162 426.811 122.8L425.329 117.268C425.045 116.206 424.759 114.875 424.472 113.274C424.178 111.647 423.671 110.019 422.951 108.392C422.223 106.738 421.287 105.368 420.143 104.281C419.017 103.16 417.468 102.579 415.495 102.539C413.676 105.301 411.464 108.936 408.861 113.444C406.278 117.918 403.755 122.674 401.294 127.712C398.834 132.751 396.602 137.586 394.601 142.216C392.593 146.821 391.342 150.327 390.85 152.734L357.494 315.616C357.203 316.547 357.197 318.596 357.477 321.763C357.757 324.93 358.126 328.429 358.584 332.26C359.041 336.09 359.583 339.969 360.209 343.897ZM320.056 184.934C323.479 184.018 326.673 183.305 329.636 182.796C332.6 182.287 335.272 182.282 337.653 182.782C340.053 183.249 342.184 184.356 344.046 186.104C345.935 187.845 347.373 190.56 348.362 194.248L349.748 199.423C350.239 201.254 350.516 203.085 350.58 204.916C350.637 206.721 350.295 208.362 349.553 209.841C348.831 211.285 347.289 212.324 344.928 212.956C341.239 213.944 337.915 213.426 334.956 211.403C332.015 209.346 329.542 206.695 327.535 203.45C325.547 200.172 323.926 196.724 322.673 193.106C321.419 189.489 320.547 186.765 320.056 184.934Z" fill="#184351"/>
</svg>
